<svg width="32" height="40" viewBox="0 0 32 40" fill="none" xmlns="http://www.w3.org/2000/svg">
<path d="M5.80612 9.84917C7.13909 8.73663 8.85805 8 10.333 8C11.4912 8 12.4015 8.18412 13.1428 8.49408C13.8889 8.80609 14.4122 9.22425 14.8153 9.61796C14.9911 9.78975 15.1482 9.96129 15.2778 10.1027L15.3182 10.147C15.4643 10.3062 15.5682 10.4161 15.6655 10.5027C15.8309 10.6498 15.9045 10.6667 15.9997 10.6667C16.0949 10.6667 16.1685 10.6498 16.3338 10.5027C16.4313 10.4161 16.535 10.3062 16.6811 10.147L16.7215 10.1028C16.8511 9.96132 17.0082 9.78975 17.1841 9.61796C17.5871 9.22425 18.1105 8.80609 18.8566 8.49408C19.5978 8.18412 20.5081 8 21.6663 8C23.1413 8 24.8603 8.73663 26.1933 9.84917C27.5349 10.969 28.6663 12.6245 28.6663 14.5974C28.6663 15.6349 28.6633 17.6717 26.8357 19.848C26.3423 20.6285 26.0039 21.5476 25.9997 22.3388C25.9857 24.9068 25.4166 27.0765 24.5562 28.6392C23.7346 30.1312 22.4806 31.3333 20.9997 31.3333C20.5223 31.3333 20.0777 31.1993 19.699 30.9188C19.3346 30.6488 19.0929 30.2889 18.9259 29.9323C18.6065 29.25 18.4683 28.3687 18.3683 27.5292C18.3267 27.1799 18.2899 26.8241 18.2529 26.4652C18.0998 24.9868 17.941 23.4527 17.417 22.0709C17.1693 21.5941 16.7418 21.3333 16.333 21.3333H15.6663C15.2474 21.3333 14.809 21.6071 14.5645 22.1065C13.8393 23.5872 13.7497 25.2567 13.6637 26.8599C13.6525 27.0693 13.6413 27.2777 13.6287 27.4844C13.579 28.304 13.5018 29.2124 13.1881 29.9189C13.0196 30.2984 12.7621 30.672 12.3614 30.944C11.9567 31.2188 11.4891 31.3333 10.9997 31.3333C9.3472 31.3333 8.0816 30.1716 7.28013 28.6145C6.46985 27.0403 6.01349 24.872 5.9997 22.3388C5.99584 21.6293 5.72348 20.8117 5.30088 20.0756C5.22664 19.9463 5.12221 19.8173 4.95116 19.6144C3.33264 17.6937 3.3329 15.5741 3.33301 14.6214L3.33302 14.5974C3.33302 12.6245 4.46442 10.969 5.80612 9.84917ZM20.9997 12C20.4474 12 19.9997 12.4477 19.9997 13C19.9997 13.5523 20.4474 14 20.9997 14C21.9522 14 22.6663 14.7142 22.6663 15.6667C22.6663 16.2189 23.1141 16.6667 23.6663 16.6667C24.2186 16.6667 24.6663 16.2189 24.6663 15.6667C24.6663 13.6096 23.0567 12 20.9997 12Z" fill="#840403"/>
</svg>
