<svg width="32" height="40" viewBox="0 0 32 40" fill="none" xmlns="http://www.w3.org/2000/svg">
<path d="M22.6682 32.3268L22.6691 24.3255C20.8427 25.7904 18.5238 26.6667 16.0003 26.6667C13.4782 26.6667 11.1606 25.7914 9.33458 24.3279L9.33702 32.3268C9.33702 33.1372 10.2503 33.611 10.9128 33.1444L16.0014 29.5608L21.0926 33.1446C21.7551 33.611 22.6682 33.1371 22.6682 32.3268ZM25.3337 16C25.3337 10.8454 21.155 6.66669 16.0003 6.66669C10.8457 6.66669 6.66699 10.8454 6.66699 16C6.66699 21.1547 10.8457 25.3334 16.0003 25.3334C21.155 25.3334 25.3337 21.1547 25.3337 16ZM16.3054 11.5231L17.5222 13.9934L20.2474 14.3872C20.5265 14.4275 20.6381 14.7705 20.4361 14.9673L18.465 16.8879L18.9303 19.6018C18.9779 19.8796 18.6862 20.0915 18.4367 19.96L16.0005 18.6768L13.5641 19.96C13.3145 20.0915 13.0226 19.8795 13.0705 19.6015L13.5382 16.8879L11.5648 14.9674C11.3627 14.7707 11.4742 14.4275 11.7534 14.3872L14.4786 13.9934L15.6954 11.5231C15.8201 11.2701 16.1809 11.2701 16.3054 11.5231Z" fill="#840403"/>
</svg>
