<svg width="32" height="40" viewBox="0 0 32 40" fill="none" xmlns="http://www.w3.org/2000/svg">
<path d="M28 15.3333V27.6667C28 30.0599 26.0599 32 23.6667 32H8.33333C5.94009 32 4 30.0599 4 27.6667V15.3333H28ZM9.66667 24C8.74619 24 8 24.7461 8 25.6667C8 26.5872 8.74619 27.3333 9.66667 27.3333C10.5871 27.3333 11.3333 26.5872 11.3333 25.6667C11.3333 24.7461 10.5871 24 9.66667 24ZM16 24C15.0795 24 14.3333 24.7461 14.3333 25.6667C14.3333 26.5872 15.0795 27.3333 16 27.3333C16.9205 27.3333 17.6667 26.5872 17.6667 25.6667C17.6667 24.7461 16.9205 24 16 24ZM9.66667 18C8.74619 18 8 18.7461 8 19.6667C8 20.5872 8.74619 21.3333 9.66667 21.3333C10.5871 21.3333 11.3333 20.5872 11.3333 19.6667C11.3333 18.7461 10.5871 18 9.66667 18ZM16 18C15.0795 18 14.3333 18.7461 14.3333 19.6667C14.3333 20.5872 15.0795 21.3333 16 21.3333C16.9205 21.3333 17.6667 20.5872 17.6667 19.6667C17.6667 18.7461 16.9205 18 16 18ZM22.3333 18C21.4128 18 20.6667 18.7461 20.6667 19.6667C20.6667 20.5872 21.4128 21.3333 22.3333 21.3333C23.2539 21.3333 24 20.5872 24 19.6667C24 18.7461 23.2539 18 22.3333 18ZM23.6667 8C26.0599 8 28 9.94009 28 12.3333V13.3333H4V12.3333C4 9.94009 5.94009 8 8.33333 8H23.6667Z" fill="#840403"/>
</svg>
