<svg width="32" height="40" viewBox="0 0 32 40" fill="none" xmlns="http://www.w3.org/2000/svg">
<path d="M10.0003 14.6664C12.2095 14.6664 14.0003 12.8756 14.0003 10.6665C14.0003 8.45743 12.2095 6.66663 10.0003 6.66663C7.79119 6.66663 6.00033 8.45743 6.00033 10.6665C6.00033 12.8756 7.79119 14.6664 10.0003 14.6664ZM2.66699 18.357C2.66699 17.0553 3.72231 16 5.02411 16H11.3805C10.9267 16.7844 10.667 17.6952 10.667 18.6666C10.667 20.2596 11.3654 21.6894 12.4726 22.6666H11.0241C9.44169 22.6666 8.09189 23.6626 7.56735 25.0618C5.56907 24.5734 4.33055 23.4837 3.60147 22.2702C2.66691 20.7146 2.66698 19.114 2.66699 18.8362V18.357ZM21.3338 18.6666C21.3338 17.6952 21.0742 16.7844 20.6203 16H26.9766C28.2783 16 29.3337 17.0553 29.3337 18.357V18.8362C29.3337 19.114 29.3338 20.7146 28.3991 22.2702C27.6701 23.4837 26.4315 24.5734 24.4333 25.0618C23.9087 23.6626 22.559 22.6666 20.9766 22.6666H19.5282C20.6355 21.6894 21.3338 20.2596 21.3338 18.6666ZM26.0003 10.6665C26.0003 12.8756 24.2095 14.6664 22.0003 14.6664C19.7911 14.6664 18.0003 12.8756 18.0003 10.6665C18.0003 8.45743 19.7911 6.66663 22.0003 6.66663C24.2095 6.66663 26.0003 8.45743 26.0003 10.6665ZM8.66699 26.357C8.66699 25.0553 9.72231 24 11.0241 24H20.9766C22.2783 24 23.3337 25.0553 23.3337 26.357V26.8362C23.3337 27.114 23.3338 28.7146 22.3991 30.2702C21.4107 31.9156 19.4857 33.3333 16.0003 33.3333C12.515 33.3333 10.59 31.9156 9.60146 30.2702C8.66691 28.7146 8.66698 27.114 8.66699 26.8362V26.357ZM16.0003 22.6664C18.2095 22.6664 20.0003 20.8756 20.0003 18.6665C20.0003 16.4574 18.2095 14.6666 16.0003 14.6666C13.7911 14.6666 12.0003 16.4574 12.0003 18.6665C12.0003 20.8756 13.7911 22.6664 16.0003 22.6664Z" fill="#840403"/>
</svg>
