<svg width="32" height="32" viewBox="0 0 32 32" fill="none" xmlns="http://www.w3.org/2000/svg">
<path d="M9.00033 10.6667C8.44805 10.6667 8.00033 11.1144 8.00033 11.6667V16.3333C8.00033 16.8856 8.44805 17.3333 9.00033 17.3333H23.0003C23.5526 17.3333 24.0003 16.8856 24.0003 16.3333V11.6667C24.0003 11.1144 23.5526 10.6667 23.0003 10.6667H9.00033ZM10.0003 15.3333V12.6667H22.0003V15.3333H10.0003ZM18.3337 18.6667C17.7814 18.6667 17.3337 19.1144 17.3337 19.6667V23C17.3337 23.5523 17.7814 24 18.3337 24H23.0003C23.5526 24 24.0003 23.5523 24.0003 23V19.6667C24.0003 19.1144 23.5526 18.6667 23.0003 18.6667H18.3337ZM19.3337 22V20.6667H22.0003V22H19.3337ZM5.33366 4C3.8609 4 2.66699 5.19391 2.66699 6.66667C2.66699 7.65371 3.20326 8.51551 4.00033 8.97659V27C4.00033 27.5523 4.44805 28 5.00033 28H27.0003C27.5526 28 28.0003 27.5523 28.0003 27V8.97659C28.7974 8.51551 29.3337 7.65371 29.3337 6.66667C29.3337 5.19391 28.1398 4 26.667 4H5.33366ZM26.0003 9.33333V26H15.3337V19.6667C15.3337 19.1144 14.8859 18.6667 14.3337 18.6667H9.00033C8.44805 18.6667 8.00033 19.1144 8.00033 19.6667V26H6.00033V9.33333H26.0003ZM4.66699 6.66667C4.66699 6.29848 4.96547 6 5.33366 6H26.667C27.0351 6 27.3337 6.29848 27.3337 6.66667C27.3337 7.03485 27.0351 7.33333 26.667 7.33333H5.33366C4.96547 7.33333 4.66699 7.03485 4.66699 6.66667ZM13.3337 26H10.0003V20.6667H13.3337V26Z" fill="#840403"/>
</svg>
